<?xml version="1.0" encoding="UTF-8" standalone="no"?>
<!DOCTYPE svg PUBLIC "-//W3C//DTD SVG 1.0//EN" "http://www.w3.org/TR/2001/PR-SVG-20010719/DTD/svg10.dtd">
<svg width="25cm" height="21cm" viewBox="78 99 482 420" xmlns="http://www.w3.org/2000/svg" xmlns:xlink="http://www.w3.org/1999/xlink">
  <g>
    <rect style="fill: #ffffff" x="200" y="100" width="240" height="38"/>
    <rect style="fill: none; fill-opacity:0; stroke-width: 2; stroke: #000000" x="200" y="100" width="240" height="38"/>
    <text font-size="12.7998" style="fill: #000000;text-anchor:middle;font-family:sans-serif;font-style:normal;font-weight:normal" x="320" y="122.9">
      <tspan x="320" y="122.9">I want to allocate something</tspan>
    </text>
  </g>
  <g>
    <rect style="fill: #ffffff" x="340" y="200" width="82.45" height="38"/>
    <rect style="fill: none; fill-opacity:0; stroke-width: 2; stroke: #000000" x="340" y="200" width="82.45" height="38"/>
    <text font-size="12.7998" style="fill: #000000;text-anchor:middle;font-family:sans-serif;font-style:normal;font-weight:normal" x="381.225" y="222.9">
      <tspan x="381.225" y="222.9">k?alloc()</tspan>
    </text>
  </g>
  <g>
    <rect style="fill: #ffffff" x="440" y="200" width="88.9" height="38"/>
    <rect style="fill: none; fill-opacity:0; stroke-width: 2; stroke: #000000" x="440" y="200" width="88.9" height="38"/>
    <text font-size="12.7998" style="fill: #000000;text-anchor:middle;font-family:sans-serif;font-style:normal;font-weight:normal" x="484.45" y="222.9">
      <tspan x="484.45" y="222.9">zbud/zpair</tspan>
    </text>
  </g>
  <g>
    <path style="fill: none; fill-opacity:0; stroke-width: 2; stroke: #000000" d="M 320 138 C 317.7,160 380,180 380.63,190.282"/>
    <polygon style="fill: #000000" points="381.088,197.768 375.486,188.092 380.63,190.282 385.468,187.481 "/>
    <polygon style="fill: none; fill-opacity:0; stroke-width: 2; stroke: #000000" points="381.088,197.768 375.486,188.092 380.63,190.282 385.468,187.481 "/>
  </g>
  <g>
    <path style="fill: none; fill-opacity:0; stroke-width: 2; stroke: #000000" d="M 320 138 C 340,179 484.45,160 484.45,190.264"/>
    <polygon style="fill: #000000" points="484.45,197.764 479.45,187.764 484.45,190.264 489.45,187.764 "/>
    <polygon style="fill: none; fill-opacity:0; stroke-width: 2; stroke: #000000" points="484.45,197.764 479.45,187.764 484.45,190.264 489.45,187.764 "/>
  </g>
  <g>
    <rect style="fill: #ffffff" x="260" y="287" width="160.25" height="86"/>
    <rect style="fill: none; fill-opacity:0; stroke-width: 2; stroke: #000000" x="260" y="287" width="160.25" height="86"/>
    <text font-size="12.7998" style="fill: #000000;text-anchor:middle;font-family:sans-serif;font-style:normal;font-weight:normal" x="340.125" y="317.9">
      <tspan x="340.125" y="317.9">alloc_page*()</tspan>
      <tspan x="340.125" y="333.9">/* eventually call the</tspan>
      <tspan x="340.125" y="349.9">page allocator */</tspan>
    </text>
  </g>
  <g>
    <rect style="fill: #ffffff" x="80" y="440" width="184.4" height="40"/>
    <rect style="fill: none; fill-opacity:0; stroke-width: 2; stroke: #000000" x="80" y="440" width="184.4" height="40"/>
    <text font-size="12.7998" style="fill: #000000;text-anchor:middle;font-family:sans-serif;font-style:normal;font-weight:normal" x="172.2" y="463.9">
      <tspan x="172.2" y="463.9">use the percpu page sets</tspan>
    </text>
  </g>
  <g>
    <rect style="fill: #ffffff" x="380" y="440" width="180" height="54"/>
    <rect style="fill: none; fill-opacity:0; stroke-width: 2; stroke: #000000" x="380" y="440" width="180" height="54"/>
    <text font-size="12.7998" style="fill: #000000;text-anchor:middle;font-family:sans-serif;font-style:normal;font-weight:normal" x="470" y="462.9">
      <tspan x="470" y="462.9">use the free lists</tspan>
      <tspan x="470" y="478.9">(from struct zone)</tspan>
    </text>
  </g>
  <g>
    <path style="fill: none; fill-opacity:0; stroke-width: 2; stroke: #000000" d="M 320 138 C 320,180 158.89,275.697 249.689,302.903"/>
    <polygon style="fill: #000000" points="256.873,305.056 245.859,306.975 249.689,302.903 248.729,297.396 "/>
    <polygon style="fill: none; fill-opacity:0; stroke-width: 2; stroke: #000000" points="256.873,305.056 245.859,306.975 249.689,302.903 248.729,297.396 "/>
  </g>
  <g>
    <polyline style="fill: none; fill-opacity:0; stroke-width: 2; stroke: #000000" points="381.225,238 381.225,262.5 340.125,262.5 340.125,277.264 "/>
    <polygon style="fill: #000000" points="340.125,284.764 335.125,274.764 340.125,277.264 345.125,274.764 "/>
    <polygon style="fill: none; fill-opacity:0; stroke-width: 2; stroke: #000000" points="340.125,284.764 335.125,274.764 340.125,277.264 345.125,274.764 "/>
  </g>
  <g>
    <polyline style="fill: none; fill-opacity:0; stroke-width: 2; stroke: #000000" points="484.45,239.01 484.45,330 429.986,330 "/>
    <polygon style="fill: #000000" points="422.486,330 432.486,325 429.986,330 432.486,335 "/>
    <polygon style="fill: none; fill-opacity:0; stroke-width: 2; stroke: #000000" points="422.486,330 432.486,325 429.986,330 432.486,335 "/>
  </g>
  <g>
    <polyline style="fill: none; fill-opacity:0; stroke-width: 2; stroke: #000000" points="340.125,373.998 340.125,400 172.2,400 172.2,430.264 "/>
    <polygon style="fill: #000000" points="172.2,437.764 167.2,427.764 172.2,430.264 177.2,427.764 "/>
    <polygon style="fill: none; fill-opacity:0; stroke-width: 2; stroke: #000000" points="172.2,437.764 167.2,427.764 172.2,430.264 177.2,427.764 "/>
  </g>
  <g>
    <polyline style="fill: none; fill-opacity:0; stroke-width: 2; stroke: #000000" points="340.125,373 340.125,400 470,400 470,430.264 "/>
    <polygon style="fill: #000000" points="470,437.764 465,427.764 470,430.264 475,427.764 "/>
    <polygon style="fill: none; fill-opacity:0; stroke-width: 2; stroke: #000000" points="470,437.764 465,427.764 470,430.264 475,427.764 "/>
  </g>
  <g>
    <path style="fill: none; fill-opacity:0; stroke-width: 2; stroke: #000000" d="M 172.2 480 C 200,600 358.296,391.999 420.213,433.571"/>
    <polygon style="fill: #000000" points="426.44,437.752 415.35,436.329 420.213,433.571 420.924,428.027 "/>
    <polygon style="fill: none; fill-opacity:0; stroke-width: 2; stroke: #000000" points="426.44,437.752 415.35,436.329 420.213,433.571 420.924,428.027 "/>
  </g>
  <text font-size="12.7998" style="fill: #000000;text-anchor:start;font-family:sans-serif;font-style:normal;font-weight:normal" x="300" y="440">
    <tspan x="300" y="440">Fallback</tspan>
  </text>
</svg>
